<svg width="900" height="520" viewBox="0 0 900 520" xmlns="http://www.w3.org/2000/svg">
  <rect width="900" height="520" fill="white"/>

  <text x="450" y="45" text-anchor="middle" font-family="Arial" font-size="28" font-weight="bold" fill="#1f2937">
    Excel QR Code Generator
  </text>
  <text x="450" y="75" text-anchor="middle" font-family="Arial" font-size="14" fill="#4b5563">
    Batch QR code generation workflow
  </text>

  <rect x="275" y="110" width="350" height="58" rx="10" fill="#eef2ff" stroke="#6366f1" stroke-width="2"/>
  <text x="450" y="135" text-anchor="middle" font-family="Arial" font-size="16" font-weight="bold" fill="#3730a3">
    Excel Input Data
  </text>
  <text x="450" y="155" text-anchor="middle" font-family="Arial" font-size="12" fill="#4f46e5">
    No. / QR Text or URL / Output Status
  </text>

  <line x1="450" y1="168" x2="450" y2="210" stroke="#6b7280" stroke-width="2"/>
  <polygon points="450,220 443,208 457,208" fill="#6b7280"/>

  <rect x="250" y="220" width="400" height="58" rx="10" fill="#ecfeff" stroke="#06b6d4" stroke-width="2"/>
  <text x="450" y="245" text-anchor="middle" font-family="Arial" font-size="16" font-weight="bold" fill="#155e75">
    VBA QR Generation Module
  </text>
  <text x="450" y="265" text-anchor="middle" font-family="Arial" font-size="12" fill="#0e7490">
    UTF-8 Encoding / BOM Cleanup / URL Encoding
  </text>

  <line x1="450" y1="278" x2="450" y2="320" stroke="#6b7280" stroke-width="2"/>
  <polygon points="450,330 443,318 457,318" fill="#6b7280"/>

  <rect x="95" y="340" width="230" height="62" rx="10" fill="#fff7ed" stroke="#f97316" stroke-width="2"/>
  <text x="210" y="365" text-anchor="middle" font-family="Arial" font-size="15" font-weight="bold" fill="#9a3412">
    PNG Export
  </text>
  <text x="210" y="385" text-anchor="middle" font-family="Arial" font-size="12" fill="#c2410c">
    Save QR images as files
  </text>

  <rect x="335" y="340" width="230" height="62" rx="10" fill="#f0fdf4" stroke="#22c55e" stroke-width="2"/>
  <text x="450" y="365" text-anchor="middle" font-family="Arial" font-size="15" font-weight="bold" fill="#166534">
    Worksheet Insertion
  </text>
  <text x="450" y="385" text-anchor="middle" font-family="Arial" font-size="12" fill="#15803d">
    Insert QR images into cells
  </text>

  <rect x="575" y="340" width="230" height="62" rx="10" fill="#fdf2f8" stroke="#ec4899" stroke-width="2"/>
  <text x="690" y="365" text-anchor="middle" font-family="Arial" font-size="15" font-weight="bold" fill="#9d174d">
    Status Output
  </text>
  <text x="690" y="385" text-anchor="middle" font-family="Arial" font-size="12" fill="#be185d">
    OK / NG result per row
  </text>

  <line x1="450" y1="278" x2="210" y2="340" stroke="#9ca3af" stroke-width="2"/>
  <line x1="450" y1="278" x2="450" y2="340" stroke="#9ca3af" stroke-width="2"/>
  <line x1="450" y1="278" x2="690" y2="340" stroke="#9ca3af" stroke-width="2"/>

  <rect x="260" y="445" width="380" height="48" rx="10" fill="#f9fafb" stroke="#374151" stroke-width="2"/>
  <text x="450" y="467" text-anchor="middle" font-family="Arial" font-size="15" font-weight="bold" fill="#111827">
    Batch Processing Workflow
  </text>
  <text x="450" y="485" text-anchor="middle" font-family="Arial" font-size="12" fill="#4b5563">
    Generate many QR codes from Excel data with one click
  </text>
</svg>
